<?xml version="1.0" standalone="no"?>
<!DOCTYPE svg PUBLIC "-//W3C//DTD SVG 20010904//EN"
 "http://www.w3.org/TR/2001/REC-SVG-20010904/DTD/svg10.dtd">
<svg version="1.0" xmlns="http://www.w3.org/2000/svg"
 width="1023.000000pt" height="208.000000pt" viewBox="0 0 1023.000000 208.000000"
 preserveAspectRatio="xMidYMid meet">

<g transform="translate(0.000000,208.000000) scale(0.100000,-0.100000)"
fill="#000000" stroke="none">
<path d="M2111 1536 l-11 -46 -54 0 c-49 0 -55 -2 -58 -22 -3 -23 -4 -23 -218
-26 l-216 -2 -34 -128 c-18 -70 -35 -133 -38 -139 -3 -10 43 -13 212 -13 119
0 216 -3 216 -7 0 -5 -141 -125 -314 -268 l-314 -260 171 -3 c95 -1 203 2 241
8 219 34 422 185 526 390 22 44 80 212 134 388 7 21 5 22 -67 22 l-73 0 -10
-37 -9 -38 -107 -3 c-101 -3 -108 -1 -108 17 0 40 11 51 51 51 32 0 42 5 51
25 10 22 17 24 86 27 l75 3 15 43 c8 24 12 45 9 48 -2 3 -36 8 -74 11 l-70 6
-12 -47z"/>
<path d="M2337 1533 c-4 -3 -7 -17 -7 -30 0 -20 5 -23 35 -23 33 0 55 20 55
49 0 12 -72 15 -83 4z"/>
<path d="M1090 1424 c-207 -45 -396 -184 -487 -360 -32 -62 -153 -400 -153
-428 0 -3 34 -6 75 -6 l74 0 11 40 11 40 103 0 c56 0 105 -3 108 -6 3 -3 3
-17 -1 -32 -6 -24 -13 -27 -53 -30 -39 -3 -47 -7 -52 -27 -6 -23 -11 -24 -83
-27 l-76 -3 -15 -43 c-8 -24 -12 -45 -11 -46 2 -2 36 -6 76 -10 l72 -7 12 45
11 46 52 0 c47 0 53 3 62 26 l9 26 211 -1 211 -2 36 133 c20 73 37 137 37 141
0 4 -97 7 -216 7 -149 0 -213 3 -209 11 4 5 143 123 308 261 166 138 306 255
312 259 16 15 -363 9 -435 -7z"/>
<path d="M3400 1192 l-35 -3 -56 -150 -57 -149 38 0 c32 0 39 4 50 30 12 29
15 30 72 30 57 0 59 -1 69 -30 10 -26 16 -30 50 -30 l39 0 -21 53 c-12 28 -37
96 -57 149 -20 54 -41 99 -47 100 -5 2 -26 2 -45 0z m34 -139 c13 -37 13 -48
4 -55 -17 -10 -56 -10 -62 1 -7 11 23 101 34 101 4 0 15 -21 24 -47z"/>
<path d="M4843 1192 l-73 -3 0 -149 0 -150 34 0 c34 0 35 1 38 48 3 45 4 47
35 50 30 3 35 -1 60 -47 26 -47 31 -51 66 -51 l37 0 -24 48 -24 48 24 21 c20
18 24 31 24 80 0 101 -21 112 -197 105z m115 -54 c7 -7 12 -29 12 -50 0 -44
-14 -53 -80 -53 l-45 0 -3 44 c-2 24 -1 50 2 57 7 18 97 19 114 2z"/>
<path d="M5823 1192 c-65 -3 -73 -5 -73 -22 0 -18 7 -20 69 -20 39 0 72 -4 76
-9 3 -5 -29 -51 -70 -103 -52 -65 -75 -101 -75 -120 l0 -28 125 0 c118 0 125
1 125 20 0 21 2 20 -117 24 -17 1 -34 4 -38 8 -4 4 27 49 69 100 67 82 97 132
85 142 -8 7 -105 11 -176 8z"/>
<path d="M7364 1191 c-47 -8 -54 -27 -54 -148 0 -150 3 -153 139 -153 142 0
146 4 146 149 0 143 -4 148 -126 153 -47 1 -94 1 -105 -1z m140 -47 c13 -5 16
-23 16 -98 0 -58 -4 -96 -12 -104 -15 -15 -82 -16 -109 -2 -17 9 -19 22 -19
98 0 55 4 92 12 100 13 13 85 16 112 6z"/>
<path d="M9285 1193 c-44 -2 -89 -5 -101 -8 -32 -7 -44 -48 -44 -149 0 -80 3
-97 21 -120 21 -26 23 -27 122 -24 99 3 102 4 105 27 4 24 4 24 -70 18 -40 -4
-79 -3 -86 2 -9 6 -12 34 -10 107 l3 99 83 3 c79 3 83 4 80 24 -4 25 -1 25
-103 21z"/>
<path d="M2656 1171 c-12 -13 -18 -36 -18 -67 0 -69 22 -84 118 -84 l74 0 0
-39 c0 -48 -7 -51 -112 -51 -70 0 -79 -2 -76 -17 3 -16 17 -18 103 -21 55 -2
110 0 121 2 45 12 58 124 17 153 -9 8 -46 13 -83 13 -70 0 -90 10 -90 45 0 36
20 45 97 45 66 0 73 2 73 20 0 19 -7 20 -103 20 -90 0 -106 -3 -121 -19z"/>
<path d="M2960 1171 c0 -17 8 -20 48 -23 l47 -3 3 -127 3 -128 34 0 34 0 3
128 3 127 48 3 c39 3 47 6 47 23 0 18 -8 19 -135 19 -127 0 -135 -1 -135 -19z"/>
<path d="M3650 1040 l0 -150 35 0 35 0 0 84 c0 47 4 87 9 91 5 3 33 -35 61
-85 51 -89 52 -90 90 -90 l39 0 3 108 c2 59 2 126 0 150 -3 41 -4 42 -38 42
l-34 0 0 -85 c0 -47 -4 -85 -9 -85 -5 0 -31 38 -57 85 l-49 85 -42 0 -43 0 0
-150z"/>
<path d="M4030 1040 l0 -150 105 0 c57 0 115 5 129 11 33 15 46 56 46 146 0
77 -16 126 -45 137 -9 3 -66 6 -126 6 l-109 0 0 -150z m194 88 c11 -15 16 -45
16 -90 0 -86 -19 -111 -83 -106 l-42 3 -3 94 c-1 52 -1 100 2 108 3 8 22 13
50 13 35 0 48 -5 60 -22z"/>
<path d="M4455 1118 c-15 -40 -40 -108 -56 -150 l-28 -78 37 0 c33 0 39 4 49
31 11 29 13 30 70 27 52 -3 59 -6 71 -30 11 -23 20 -28 48 -28 18 0 34 3 34 6
0 8 -72 205 -94 257 -15 35 -19 37 -60 37 l-44 0 -27 -72z m98 -65 c19 -52 12
-65 -33 -61 -28 3 -31 28 -11 81 15 38 24 34 44 -20z"/>
<path d="M5148 1148 c-2 -24 -2 -92 0 -151 l3 -109 116 4 c150 4 153 7 153
150 0 92 -2 101 -25 123 -23 24 -31 25 -134 25 l-110 0 -3 -42z m186 -14 c12
-11 16 -36 16 -94 0 -73 -2 -81 -24 -95 -15 -10 -40 -15 -63 -13 l-38 3 -3 94
c-1 52 -1 100 2 108 8 19 91 17 110 -3z"/>
<path d="M5510 1171 c0 -10 9 -21 20 -24 18 -5 20 -14 20 -107 0 -93 -2 -102
-20 -107 -11 -3 -20 -14 -20 -24 0 -17 8 -19 75 -19 67 0 75 2 75 19 0 11 -9
23 -20 26 -18 6 -20 15 -20 107 0 91 2 100 20 105 11 3 20 14 20 24 0 17 -8
19 -75 19 -67 0 -75 -2 -75 -19z"/>
<path d="M6090 1040 l0 -150 120 0 c113 0 120 1 120 20 0 17 -8 19 -82 22
l-83 3 0 40 0 40 63 3 c53 3 62 6 62 22 0 16 -9 19 -62 22 l-63 3 0 40 0 40
83 3 c74 3 82 5 82 22 0 19 -7 20 -120 20 l-120 0 0 -150z"/>
<path d="M6430 1039 l0 -151 116 4 c151 4 154 7 154 150 0 92 -2 101 -25 123
-23 24 -31 25 -135 25 l-110 0 0 -151z m184 95 c12 -11 16 -36 16 -94 0 -73
-2 -81 -24 -95 -15 -10 -40 -15 -63 -13 l-38 3 -3 94 c-1 52 -1 100 2 108 8
19 91 17 110 -3z"/>
<path d="M6996 1168 c-12 -17 -16 -49 -16 -130 0 -142 5 -148 124 -148 99 0
116 5 116 33 0 19 -4 20 -73 14 -51 -5 -77 -3 -85 5 -16 16 -16 180 0 196 7 7
42 12 85 12 66 0 73 2 73 20 0 19 -7 20 -104 20 -97 0 -106 -2 -120 -22z"/>
<path d="M7700 1041 l0 -151 35 0 35 0 0 91 c0 109 5 108 71 -10 l44 -81 43 0
42 0 0 150 0 150 -35 0 c-33 0 -35 -2 -37 -37 -1 -21 -1 -49 0 -63 1 -14 0
-36 -3 -49 -8 -31 -16 -22 -69 71 -40 71 -43 73 -84 76 l-42 3 0 -150z"/>
<path d="M8060 1170 c0 -17 7 -20 45 -20 l45 0 0 -130 0 -130 40 0 40 0 0 130
0 130 45 0 c38 0 45 3 45 20 0 19 -7 20 -130 20 -123 0 -130 -1 -130 -20z"/>
<path d="M8410 1040 l0 -150 34 0 c34 0 35 1 38 48 3 47 3 47 38 47 32 0 37
-5 60 -47 23 -44 28 -48 63 -48 20 0 37 2 37 5 0 2 -9 19 -20 37 -26 42 -25
56 2 78 19 15 23 28 23 78 0 95 -11 102 -157 102 l-118 0 0 -150z m188 98 c7
-7 12 -28 12 -48 0 -46 -15 -60 -61 -60 -61 0 -69 7 -69 59 0 26 3 51 7 54 11
12 98 8 111 -5z"/>
<path d="M8819 1048 c-30 -78 -55 -145 -57 -150 -2 -4 14 -8 36 -8 36 0 41 3
51 31 10 29 12 30 68 27 52 -3 59 -6 71 -30 11 -23 19 -28 51 -28 l39 0 -57
150 -56 150 -46 0 -46 0 -54 -142z m123 5 c9 -26 15 -50 12 -55 -7 -12 -62
-10 -69 2 -7 11 23 100 34 100 3 0 14 -21 23 -47z"/>
<path d="M9460 1170 c0 -17 7 -20 45 -20 l45 0 0 -130 0 -130 40 0 40 0 0 130
0 130 50 0 c43 0 50 3 50 20 0 19 -7 20 -135 20 -128 0 -135 -1 -135 -20z"/>
<path d="M9822 1174 c-18 -12 -22 -25 -22 -69 0 -72 18 -85 117 -85 l73 0 0
-39 c0 -48 -8 -51 -108 -49 -77 1 -88 -2 -79 -27 5 -12 26 -15 117 -15 132 0
150 10 150 85 0 65 -23 85 -101 85 -71 0 -99 12 -99 43 0 38 19 47 97 47 66 0
73 2 73 20 0 19 -7 20 -98 20 -72 0 -103 -4 -120 -16z"/>
<path d="M435 573 c-30 -5 -45 -18 -45 -40 0 -9 16 -13 45 -13 38 0 45 3 45
20 0 11 0 23 1 27 1 10 -9 11 -46 6z"/>
</g>
</svg>
